<?xml version="1.0" encoding="UTF-8" standalone="no"?>
<svg
   xmlns:dc="http://purl.org/dc/elements/1.1/"
   xmlns:cc="http://creativecommons.org/ns#"
   xmlns:rdf="http://www.w3.org/1999/02/22-rdf-syntax-ns#"
   xmlns:svg="http://www.w3.org/2000/svg"
   xmlns="http://www.w3.org/2000/svg"
   xmlns:sodipodi="http://sodipodi.sourceforge.net/DTD/sodipodi-0.dtd"
   xmlns:inkscape="http://www.inkscape.org/namespaces/inkscape"
   version="1.1"
   id="svg78"
   width="215.99998"
   height="216"
   viewBox="0 0 215.99998 216"
   sodipodi:docname="logo.svg"
   inkscape:version="1.0.1 (3bc2e813f5, 2020-09-07)">
  <metadata
     id="metadata84">
    <rdf:RDF>
      <cc:Work
         rdf:about="">
        <dc:format>image/svg+xml</dc:format>
        <dc:type
           rdf:resource="http://purl.org/dc/dcmitype/StillImage" />
        <dc:title></dc:title>
      </cc:Work>
    </rdf:RDF>
  </metadata>
  <defs
     id="defs82" />
  <sodipodi:namedview
     pagecolor="#ffffff"
     bordercolor="#666666"
     borderopacity="1"
     objecttolerance="10"
     gridtolerance="10"
     guidetolerance="10"
     inkscape:pageopacity="0"
     inkscape:pageshadow="2"
     inkscape:window-width="1914"
     inkscape:window-height="1365"
     id="namedview80"
     showgrid="false"
     showguides="false"
     fit-margin-top="0"
     fit-margin-left="0"
     fit-margin-right="0"
     fit-margin-bottom="0"
     inkscape:zoom="1.4464819"
     inkscape:cx="26.248775"
     inkscape:cy="174.26089"
     inkscape:window-x="4"
     inkscape:window-y="706"
     inkscape:window-maximized="0"
     inkscape:current-layer="g86">
    <sodipodi:guide
       position="0.49999974,215.5"
       orientation="107.5,0"
       id="guide112" />
    <sodipodi:guide
       position="0.49999974,108"
       orientation="0,107.5"
       id="guide114" />
    <sodipodi:guide
       position="108,108"
       orientation="-107.5,0"
       id="guide116" />
    <sodipodi:guide
       position="108,215.5"
       orientation="0,-107.5"
       id="guide118" />
  </sodipodi:namedview>
  <g
     inkscape:groupmode="layer"
     inkscape:label="Image"
     id="g86"
     transform="translate(-59.937515,299.7659)">
    <rect
       style="fill:#ffffff;fill-opacity:1;stroke:#ebc20f;stroke-opacity:1"
       id="rect140"
       width="26.5"
       height="26.5"
       x="60.437515"
       y="-110.7659" />
    <rect
       style="fill:#ffff00;fill-opacity:1;stroke:#ebc20f;stroke-opacity:1"
       id="rect142"
       width="26.499985"
       height="26.5"
       x="248.93752"
       y="-299.2659" />
    <path
       style="fill:#ffff00;fill-opacity:1;stroke:#ebc20f;stroke-width:0.488846;stroke-opacity:1"
       d="m 60.612315,-97.510576 v -12.954414 h 12.954417 12.954417 v 12.954414 12.954416 H 73.566732 60.612315 Z"
       id="path144" />
    <path
       style="fill:#ffff00;fill-opacity:1;stroke:#ebc20f;stroke-width:0.488846;stroke-opacity:1"
       d="m 87.009995,-151.03921 v -40.08536 h 13.443265 13.44326 v 26.88653 26.88652 h 26.6421 26.64211 v 13.19884 13.19884 H 127.09536 87.009995 Z"
       id="path146" />
    <path
       style="fill:#ffff00;fill-opacity:1;stroke:#ebc20f;stroke-width:0.488846;stroke-opacity:1"
       d="m 113.89652,-218.98879 v -26.39768 h 26.6421 26.64211 v 12.95442 12.95442 H 153.73746 140.2942 v 13.44326 13.44326 h -13.19884 -13.19884 z"
       id="path148" />
    <path
       style="fill:#ffff00;fill-opacity:1;stroke:#ebc20f;stroke-width:0.488846;stroke-opacity:1"
       d="m 168.64726,-151.03921 v -13.19883 h 13.44327 13.44326 v -13.44327 -13.44326 h 13.19884 13.19884 v 26.6421 26.6421 h -26.6421 -26.64211 z"
       id="path150" />
    <path
       style="fill:#ffff00;fill-opacity:1;stroke:#ebc20f;stroke-width:0.488846;stroke-opacity:1"
       d="m 140.78305,-177.68131 v -13.44326 h 13.19884 13.19884 v 13.44326 13.44327 h -13.19884 -13.19884 z"
       id="path152" />
    <path
       style="fill:#ffff00;fill-opacity:1;stroke:#ebc20f;stroke-width:0.488846;stroke-opacity:1"
       d="m 168.64726,-205.78995 v -13.19884 h 13.19884 13.19884 v 13.19884 13.19884 H 181.8461 168.64726 Z"
       id="path154" />
    <path
       style="fill:#ffff00;fill-opacity:1;stroke:#ebc20f;stroke-width:0.488846;stroke-opacity:1"
       d="m 221.93147,-219.23321 v -26.6421 h -26.6421 -26.64211 v -13.44327 -13.44326 h 40.08537 40.08537 v 40.08537 40.08536 h -13.44327 -13.44326 z"
       id="path156" />
    <path
       style="fill:#ffff00;fill-opacity:1;stroke:#ebc20f;stroke-width:0.488846;stroke-opacity:1"
       d="m 60.612315,-245.87531 v -53.28421 h 53.284205 53.28421 v 13.19884 13.19884 H 126.85094 86.521149 v 40.08537 40.08536 H 73.566732 60.612315 Z"
       id="path158" />
    <path
       style="fill:#ebc212;fill-opacity:1;stroke:#ebc20f;stroke-width:0.691333;stroke-opacity:1"
       d="m 60.821887,-245.90852 v -52.88694 h 52.886943 52.88693 v 12.78965 12.78965 H 126.49848 86.40119 v 40.09729 40.09729 H 73.611539 60.821887 Z"
       id="path1005" />
    <path
       style="fill:#ebc212;fill-opacity:1;stroke:#ebc20f;stroke-width:0.691333;stroke-opacity:1"
       d="m 221.90237,-219.63789 v -26.6163 h -26.61631 -26.6163 v -13.13532 -13.13531 h 40.09729 40.09729 v 39.75162 39.75162 h -13.48099 -13.48098 z"
       id="path1007" />
    <path
       style="fill:#ebc212;fill-opacity:1;stroke:#ebc20f;stroke-width:0.691333;stroke-opacity:1"
       d="m 168.66976,-97.617693 v -12.443987 l 33.70246,-0.003 c 18.53636,-0.002 36.73569,-0.20444 40.44296,-0.44994 l 6.74049,-0.44647 v -39.9635 -39.96349 l 12.79045,-0.20236 12.79044,-0.20235 -7.9e-4,53.05977 -8e-4,53.059773 h -53.2326 -53.23261 z"
       id="path1009" />
    <path
       style="fill:#ebc212;fill-opacity:1;stroke:#ebc20f;stroke-width:0.691333;stroke-opacity:1"
       d="m 248.86434,-286.00581 v -12.78965 h 13.13531 13.13532 v 12.78965 12.78965 h -13.13532 -13.13531 z"
       id="path1011" />
    <path
       style="fill:#ebc212;fill-opacity:1;stroke:#ebc20f;stroke-width:0.691333;stroke-opacity:1"
       d="m 168.66976,-151.19596 v -12.78966 h 13.48099 13.48098 v -13.48098 -13.48099 h 13.13532 13.13532 v 26.27064 26.27064 h -26.61631 -26.6163 z"
       id="path1013" />
    <path
       style="fill:#ebc212;fill-opacity:1;stroke:#ebc20f;stroke-width:0.691333;stroke-opacity:1"
       d="m 87.092523,-151.19596 v -39.75163 h 13.135317 13.13532 v 26.96197 26.96197 h 26.6163 26.6163 v 12.78965 12.78966 H 126.84414 87.092523 Z"
       id="path1015" />
    <path
       style="fill:#ebc212;fill-opacity:1;stroke:#ebc20f;stroke-width:0.691333;stroke-opacity:1"
       d="M 60.821887,-97.272027 V -110.06168 H 73.611539 86.40119 v 12.789653 12.789652 H 73.611539 60.821887 Z"
       id="path1017" />
    <path
       style="fill:#ebc212;fill-opacity:1;stroke:#ebc20f;stroke-width:0.691333;stroke-opacity:1"
       d="m 114.05449,-218.94655 v -25.92497 h 26.27064 26.27063 v 12.44398 12.44399 h -13.13531 -13.13532 v 13.48098 13.48099 h -13.13532 -13.13532 z"
       id="path1019" />
    <path
       style="fill:#ebc212;fill-opacity:1;stroke:#ebc20f;stroke-width:0.691333;stroke-opacity:1"
       d="m 141.01646,-177.81227 v -13.13532 h 12.78965 12.78965 v 13.13532 13.13532 h -12.78965 -12.78965 z"
       id="path1021" />
    <path
       style="fill:#ebc212;fill-opacity:1;stroke:#ebc20f;stroke-width:0.691333;stroke-opacity:1"
       d="m 168.66976,-205.81123 v -12.78966 h 13.13532 13.13532 v 12.78966 12.78965 h -13.13532 -13.13532 z"
       id="path1023" />
    <path
       style="fill:#ebc20f;fill-opacity:1;stroke:#ebc20f;stroke-width:0.977692;stroke-opacity:1"
       d="m 61.303709,-245.75587 v -51.81767 h 52.306511 52.30652 v 11.7323 11.73231 H 125.83137 85.746005 v 40.08536 40.08537 H 73.524857 61.303709 Z"
       id="path1025" />
    <path
       style="fill:#ebc20f;fill-opacity:1;stroke:#ebc20f;stroke-width:0.977692;stroke-opacity:1"
       d="m 115.07676,-218.86934 v -24.93115 h 25.41999 25.41999 v 11.73231 11.7323 H 152.7179 139.51906 v 13.19884 13.19884 h -12.22115 -12.22115 z"
       id="path1027" />
    <path
       style="fill:#ebc20f;fill-opacity:1;stroke:#ebc20f;stroke-width:0.977692;stroke-opacity:1"
       d="m 169.8275,-205.6705 v -11.73231 h 12.22115 12.22115 v 11.73231 11.7323 H 182.04865 169.8275 Z"
       id="path1029" />
    <path
       style="fill:#ebc20f;fill-opacity:1;stroke:#ebc20f;stroke-width:0.977692;stroke-opacity:1"
       d="m 141.47444,-177.80629 v -12.22114 h 12.22115 12.22115 v 12.22114 12.22115 h -12.22115 -12.22115 z"
       id="path1031" />
  </g>
</svg>
